PathFileType	4	(X/Y/Z)	C:\Users\dbl\Desktop\20210112\20210112\bx_n_0_1802.trc
DataRate	CameraRate	NumFrames	NumMarkers	Units	OrigDataRate	OrigDataStartFrame	OrigNumFrames
50.00	50.00	       4	43	mm	50.00	107	       425
Frame#	Time	Top.Head			R.Acromium			L.Acromium			Sternum			R.ASIS			L.ASIS			V.Sacral			R.Thigh.Upper			R.Thigh.Front			R.Thigh.Rear			R.Knee.Lat			R.Knee.Med			R.Shank.Upper			R.Shank.Front			R.Shank.Rear			R.Ankle.Lat			R.Midfoot.Lat			R.Toe.Lat			R.Toe.Tip			R.Toe.Med			R.Ankle.Med			R.Midfoot.Sup			R.Heel			L.Thigh.Upper			L.Thigh.Front			L.Thigh.Rear			L.Knee.Lat			L.Knee.Med			L.Shank.Upper			L.Shank.Front			L.Shank.Rear			L.Ankle.Lat			L.Midfoot.Lat			L.Toe.Lat			L.Toe.Tip			L.Toe.Med			L.Ankle.Med			L.Midfoot.Sup			L.Heel			origin1 front left			origin2 front right			origin 3 back right			origin 4 back leftt			
		X1	Y1	Z1	X2	Y2	Z2	X3	Y3	Z3	X4	Y4	Z4	X5	Y5	Z5	X6	Y6	Z6	X7	Y7	Z7	X8	Y8	Z8	X9	Y9	Z9	X10	Y10	Z10	X11	Y11	Z11	X12	Y12	Z12	X13	Y13	Z13	X14	Y14	Z14	X15	Y15	Z15	X16	Y16	Z16	X17	Y17	Z17	X18	Y18	Z18	X19	Y19	Z19	X20	Y20	Z20	X21	Y21	Z21	X22	Y22	Z22	X23	Y23	Z23	X24	Y24	Z24	X25	Y25	Z25	X26	Y26	Z26	X27	Y27	Z27	X28	Y28	Z28	X29	Y29	Z29	X30	Y30	Z30	X31	Y31	Z31	X32	Y32	Z32	X33	Y33	Z33	X34	Y34	Z34	X35	Y35	Z35	X36	Y36	Z36	X37	Y37	Z37	X38	Y38	Z38	X39	Y39	Z39	X40	Y40	Z40	X41	Y41	Z41	X42	Y42	Z42	X43	Y43	Z43	

107	2.120	-695.52509	123.48421	1847.54236	-684.12598	-70.78888	1537.94702	-710.90613	290.93347	1525.63171	-586.29486	106.83969	1353.93201	-576.70996	-6.52881	1053.97510	-583.64612	240.79211	1064.19446	-778.43591	94.78827	1054.03687	-641.83038	-72.15186	869.68909	-569.11774	-4.43592	801.17145	-664.79791	-62.44093	756.86890	-692.37457	-34.26579	614.05646	-683.51611	76.36682	573.32251	-703.28839	-31.38930	567.20874	-657.39233	18.34072	517.16144	-748.81146	-44.82304	488.77420	-756.17444	-16.07882	207.65659	-649.25391	-66.27561	163.00793	-608.15771	-73.90653	159.35367	-551.41357	-31.27965	165.90178	-597.17761	26.31118	166.09477	-671.76294	55.69844	155.97197	-716.14624	73.50954	215.46793	-791.09076	42.72697	176.36594	-665.49884	284.85867	872.10541	-572.00476	220.86955	791.27393	-676.51477	269.95480	743.75665	-710.63934	250.29387	643.01697	-680.19971	142.08403	576.49792	-714.38574	246.44730	575.94757	-664.04901	202.63808	533.84033	-756.12189	257.44827	503.07394	-764.71942	225.17520	206.33339	-653.94745	292.47385	156.45370	-616.85876	299.00018	158.52884	-552.97827	246.73921	166.50835	-588.46838	209.92067	173.94138	-674.22650	165.96651	156.95253	-712.42108	149.75229	216.31505	-794.15686	177.49727	185.57825	-528.09082	304.13214	146.67001	-517.46844	-72.81317	143.58946	-875.93750	-78.67240	141.43500	-882.45776	296.20206	144.80252	
108	2.140	-695.68195	123.47356	1847.55542	-684.18549	-70.75273	1537.90332	-711.29260	290.86176	1525.67505	-586.42523	106.97860	1353.94592	-576.77283	-6.41978	1053.96802	-583.73138	240.91811	1064.23022	-778.48785	94.81676	1054.01233	-641.82184	-72.12846	869.70490	-569.11041	-4.35335	801.14813	-664.78088	-62.41859	756.87128	-692.33435	-34.18961	613.99652	-683.56226	76.38066	573.35156	-703.25201	-31.37295	567.21918	-657.33820	18.36995	517.18335	-748.79913	-44.80608	488.79965	-756.17700	-16.09862	207.66406	-649.27484	-66.28227	162.98404	-608.16760	-73.87072	159.33575	-551.41876	-31.25520	165.90227	-597.18420	26.31888	166.05972	-671.65802	55.71122	156.03322	-716.14612	73.55282	215.48907	-791.08813	42.73402	176.35429	-665.55835	284.96689	872.09991	-572.02179	220.93137	791.33014	-676.54651	269.94839	743.75433	-710.63654	250.32426	643.05096	-680.25494	142.11795	576.47382	-714.41980	246.47551	575.93317	-664.07068	202.67406	533.80554	-756.11176	257.46414	503.07660	-764.73560	225.17819	206.32988	-653.95837	292.48471	156.46686	-616.85217	298.99536	158.51517	-553.01709	246.72751	166.50960	-588.45215	209.92693	173.95880	-674.26929	165.93002	156.99487	-712.40344	149.73628	216.32156	-794.17743	177.46758	185.60373	-528.08618	304.08792	146.66321	-517.46899	-72.81882	143.59422	-875.93115	-78.68841	141.39917	-882.45398	296.18539	144.77295	
109	2.160	-695.81482	123.42672	1847.55347	-684.23322	-70.72391	1537.86267	-711.65216	290.85080	1525.69751	-586.53284	107.09865	1353.97095	-576.82526	-6.30560	1053.96826	-583.77759	241.02469	1064.26697	-778.53778	94.83946	1053.97534	-641.80316	-72.11018	869.71454	-569.08142	-4.27378	801.14099	-664.75360	-62.38224	756.88037	-692.29767	-34.15778	613.95630	-683.58997	76.40385	573.34137	-703.19739	-31.33189	567.21893	-657.28210	18.41481	517.15070	-748.77838	-44.76989	488.81949	-756.16632	-16.12504	207.65788	-649.29468	-66.27499	162.97745	-608.16907	-73.81336	159.31500	-551.41888	-31.23931	165.91342	-597.18750	26.33315	166.03360	-671.48712	55.78749	156.15858	-716.16205	73.51428	215.45502	-791.06799	42.70368	176.34238	-665.59790	285.04294	872.05585	-572.02618	220.98030	791.37231	-676.56042	269.93051	743.73700	-710.61145	250.38544	643.13611	-680.28912	142.14894	576.46234	-714.42371	246.49429	575.91699	-664.05591	202.69048	533.80670	-756.09869	257.47183	503.07416	-764.74457	225.17996	206.32245	-653.96613	292.48282	156.46375	-616.85822	298.98688	158.49889	-553.05115	246.71484	166.52171	-588.44965	209.94786	173.95213	-674.32056	165.89192	157.05443	-712.36078	149.73885	216.33542	-794.19385	177.46800	185.60179	-528.10614	304.06033	146.64888	-517.47992	-72.82060	143.60277	-875.94641	-78.70885	141.39999	-882.45496	296.19092	144.75916	
110	2.180	-695.93274	123.36013	1847.55139	-684.27295	-70.70190	1537.83728	-711.93390	290.90952	1525.71692	-586.61725	107.17990	1354.00037	-576.85852	-6.21475	1053.98462	-583.80151	241.10606	1064.30139	-778.57831	94.87513	1053.92383	-641.78363	-72.09004	869.71674	-569.03125	-4.18920	801.16412	-664.71661	-62.33513	756.89886	-692.25824	-34.15765	613.96118	-683.58173	76.42620	573.29395	-703.13599	-31.25423	567.19904	-657.22772	18.47178	517.10229	-748.74164	-44.70464	488.83432	-756.14990	-16.11790	207.63490	-649.31061	-66.26385	162.98586	-608.15692	-73.76057	159.30687	-551.40833	-31.22391	165.93159	-597.18549	26.34389	166.04008	-671.34045	55.87782	156.28235	-716.17377	73.41567	215.38710	-791.05554	42.65745	176.32529	-665.62665	285.07965	871.99304	-572.01996	221.01572	791.39673	-676.55896	269.90231	743.70752	-710.57617	250.45088	643.22382	-680.26880	142.16620	576.46625	-714.41486	246.50790	575.91321	-664.02557	202.69902	533.82025	-756.08514	257.47214	503.06525	-764.73590	225.19243	206.30698	-653.97620	292.47458	156.45648	-616.87097	298.97739	158.49690	-553.07202	246.70975	166.53340	-588.45990	209.97760	173.93860	-674.35559	165.86914	157.10043	-712.31665	149.74878	216.36110	-794.19824	177.51222	185.56508	-528.13666	304.06326	146.65048	-517.51245	-72.80080	143.60924	-875.96906	-78.72336	141.42734	-882.46503	296.21463	144.77367	
